<?xml version="1.0" encoding="UTF-8"?>
<svg xmlns="http://www.w3.org/2000/svg" fill-opacity="1" color-rendering="auto" color-interpolation="auto"
     text-rendering="auto" stroke="black" stroke-linecap="square" width="967" stroke-miterlimit="10"
     shape-rendering="auto" stroke-opacity="1" fill="black" stroke-dasharray="none" font-weight="normal"
     stroke-width="1" height="1224" font-family="'Dialog'" font-style="normal" stroke-linejoin="miter" font-size="12px"
     stroke-dashoffset="0" image-rendering="auto">
  <!--Generated by ySVG 2.5-->
  <defs id="genericDefs"/>
  <g>
    <defs id="defs1">
      <clipPath clipPathUnits="userSpaceOnUse" id="clipPath1">
        <path d="M0 0 L967 0 L967 1224 L0 1224 L0 0 Z"/>
      </clipPath>
      <clipPath clipPathUnits="userSpaceOnUse" id="clipPath2">
        <path d="M358 0 L1325 0 L1325 1224 L358 1224 L358 0 Z"/>
      </clipPath>
      <clipPath clipPathUnits="userSpaceOnUse" id="clipPath3">
        <path d="M591 283 L591 388 L776 388 L776 283 Z"/>
      </clipPath>
      <clipPath clipPathUnits="userSpaceOnUse" id="clipPath4">
        <path d="M591 478 L591 583 L776 583 L776 478 Z"/>
      </clipPath>
      <clipPath clipPathUnits="userSpaceOnUse" id="clipPath5">
        <path d="M591 704 L591 809 L776 809 L776 704 Z"/>
      </clipPath>
      <clipPath clipPathUnits="userSpaceOnUse" id="clipPath6">
        <path d="M912 478 L912 583 L1097 583 L1097 478 Z"/>
      </clipPath>
      <clipPath clipPathUnits="userSpaceOnUse" id="clipPath7">
        <path d="M591 950 L591 1055 L776 1055 L776 950 Z"/>
      </clipPath>
      <clipPath clipPathUnits="userSpaceOnUse" id="clipPath8">
        <path d="M900 704 L900 809 L1085 809 L1085 704 Z"/>
      </clipPath>
      <clipPath clipPathUnits="userSpaceOnUse" id="clipPath9">
        <path d="M617 1165 L617 1203 L750 1203 L750 1165 Z"/>
      </clipPath>
      <clipPath clipPathUnits="userSpaceOnUse" id="clipPath10">
        <path d="M900 196 L900 246 L1097 246 L1097 196 Z"/>
      </clipPath>
    </defs>
    <g fill="white" text-rendering="geometricPrecision" shape-rendering="geometricPrecision" transform="translate(-358,0)" stroke="white">
      <rect x="358" width="967" height="1224" y="0" clip-path="url(#clipPath2)" stroke="none"/>
    </g>
    <g fill="rgb(255,204,0)" text-rendering="geometricPrecision" shape-rendering="geometricPrecision" transform="matrix(1,0,0,1,-358,0)" stroke="rgb(255,204,0)">
      <rect x="592" width="183" height="103" y="284" clip-path="url(#clipPath2)" stroke="none"/>
      <rect x="591" y="283" clip-path="url(#clipPath2)" fill="yellow" width="1" height="105" stroke="none"/>
      <rect x="592" y="283" clip-path="url(#clipPath2)" fill="yellow" width="183" height="1" stroke="none"/>
      <rect x="592" y="387" clip-path="url(#clipPath2)" fill="rgb(178,142,0)" width="184" height="1" stroke="none"/>
      <rect x="775" y="283" clip-path="url(#clipPath2)" fill="rgb(178,142,0)" width="1" height="104" stroke="none"/>
    </g>
    <g font-size="13px" stroke-linecap="butt" transform="matrix(1,0,0,1,-358,0)" text-rendering="geometricPrecision" font-family="sans-serif" shape-rendering="geometricPrecision" font-weight="bold" stroke-miterlimit="1.45">
      <text x="631.3953" xml:space="preserve" y="300.5669" clip-path="url(#clipPath3)" stroke="none">RCaller(@3a1)</text>
    </g>
    <g text-rendering="geometricPrecision" shape-rendering="geometricPrecision" transform="matrix(1,0,0,1,-358,0)">
      <line y2="308" fill="none" x1="592" clip-path="url(#clipPath3)" x2="775" y1="308"/>
      <text stroke-linecap="butt" x="596" y="324.7715" clip-path="url(#clipPath3)" font-family="sans-serif" stroke="none" stroke-miterlimit="1.45" xml:space="preserve">depth = 4</text>
      <text stroke-linecap="butt" x="596" y="338.7402" clip-path="url(#clipPath3)" font-family="sans-serif" stroke="none" stroke-miterlimit="1.45" xml:space="preserve">isPromise = false</text>
      <text stroke-linecap="butt" x="596" y="352.709" clip-path="url(#clipPath3)" font-family="sans-serif" stroke="none" stroke-miterlimit="1.45" xml:space="preserve">payload = {f4(f1var)}</text>
      <line y2="360" fill="none" x1="592" clip-path="url(#clipPath3)" x2="775" y1="360"/>
      <path fill="none" stroke-miterlimit="1.45" d="M723 15.5625 L1272 15.5625 L1272 30.5625 L1287 30.5625 L1287 166.5625 L723 166.5625 Z" clip-path="url(#clipPath2)" stroke-linecap="butt"/>
      <path fill="none" stroke-miterlimit="1.45" d="M1272 15.5625 L1272 30.5625 L1287 30.5625 Z" fill-rule="evenodd" clip-path="url(#clipPath2)" stroke-linecap="butt"/>
    </g>
    <g font-size="13px" stroke-linecap="butt" transform="matrix(1,0,0,1,-358,0)" text-rendering="geometricPrecision" font-family="'Source Code Pro'" shape-rendering="geometricPrecision" stroke-miterlimit="1.45">
      <text x="729" xml:space="preserve" y="54.8315" clip-path="url(#clipPath2)" stroke="none">f4 &lt;- function(f4var) { .fastr.rcallertrace(); parent.frame(f4var) }</text>
      <text x="729" xml:space="preserve" y="71.1725" clip-path="url(#clipPath2)" stroke="none">f3 &lt;- function(f3var) f3var; # promise to f4(f1var)</text>
      <text x="729" xml:space="preserve" y="87.5135" clip-path="url(#clipPath2)" stroke="none">f2 &lt;- function(f2var) f2var; # promise to f3(f4(f1var))</text>
      <text x="729" xml:space="preserve" y="103.8545" clip-path="url(#clipPath2)" stroke="none">f1 &lt;- function(f1var) f2(f3(f4(f1var)));</text>
      <text x="729" xml:space="preserve" y="120.1955" clip-path="url(#clipPath2)" stroke="none"> </text>
      <text x="729" xml:space="preserve" y="136.5365" clip-path="url(#clipPath2)" stroke="none">f1(1)</text>
    </g>
    <g fill="rgb(204,255,204)" text-rendering="geometricPrecision" shape-rendering="geometricPrecision" transform="matrix(1,0,0,1,-358,0)" stroke="rgb(204,255,204)">
      <rect x="592" width="183" height="103" y="479" clip-path="url(#clipPath2)" stroke="none"/>
      <rect x="591" y="478" clip-path="url(#clipPath2)" fill="white" width="1" height="105" stroke="none"/>
      <rect x="592" y="478" clip-path="url(#clipPath2)" fill="white" width="183" height="1" stroke="none"/>
      <rect x="592" y="582" clip-path="url(#clipPath2)" fill="rgb(142,178,142)" width="184" height="1" stroke="none"/>
      <rect x="775" y="478" clip-path="url(#clipPath2)" fill="rgb(142,178,142)" width="1" height="104" stroke="none"/>
    </g>
    <g font-size="13px" stroke-linecap="butt" transform="matrix(1,0,0,1,-358,0)" text-rendering="geometricPrecision" font-family="sans-serif" shape-rendering="geometricPrecision" font-weight="bold" stroke-miterlimit="1.45">
      <text x="630.9985" xml:space="preserve" y="495.0669" clip-path="url(#clipPath4)" stroke="none">RCaller(@4bd)</text>
    </g>
    <g text-rendering="geometricPrecision" shape-rendering="geometricPrecision" transform="matrix(1,0,0,1,-358,0)">
      <line y2="503" fill="none" x1="592" clip-path="url(#clipPath4)" x2="775" y1="503"/>
      <text stroke-linecap="butt" x="596" y="519.2715" clip-path="url(#clipPath4)" font-family="sans-serif" stroke="none" stroke-miterlimit="1.45" xml:space="preserve">depth = 3</text>
      <text stroke-linecap="butt" x="596" y="533.2402" clip-path="url(#clipPath4)" font-family="sans-serif" stroke="none" stroke-miterlimit="1.45" xml:space="preserve">isPromise = true</text>
      <text stroke-linecap="butt" x="596" y="547.209" clip-path="url(#clipPath4)" font-family="sans-serif" stroke="none" stroke-miterlimit="1.45" xml:space="preserve">promise = &lt;f4(f1var)&gt;</text>
      <line y2="555" fill="none" x1="592" clip-path="url(#clipPath4)" x2="775" y1="555"/>
      <rect x="592" y="705" clip-path="url(#clipPath2)" fill="rgb(204,255,204)" width="183" height="103" stroke="none"/>
      <rect x="591" y="704" clip-path="url(#clipPath2)" fill="white" width="1" height="105" stroke="none"/>
      <rect x="592" y="704" clip-path="url(#clipPath2)" fill="white" width="183" height="1" stroke="none"/>
      <rect x="592" y="808" clip-path="url(#clipPath2)" fill="rgb(142,178,142)" width="184" height="1" stroke="none"/>
      <rect x="775" y="704" clip-path="url(#clipPath2)" fill="rgb(142,178,142)" width="1" height="104" stroke="none"/>
    </g>
    <g font-size="13px" stroke-linecap="butt" transform="matrix(1,0,0,1,-358,0)" text-rendering="geometricPrecision" font-family="sans-serif" shape-rendering="geometricPrecision" font-weight="bold" stroke-miterlimit="1.45">
      <text x="631.2588" xml:space="preserve" y="721.0669" clip-path="url(#clipPath5)" stroke="none">RCaller(@664)</text>
    </g>
    <g text-rendering="geometricPrecision" shape-rendering="geometricPrecision" transform="matrix(1,0,0,1,-358,0)">
      <line y2="729" fill="none" x1="592" clip-path="url(#clipPath5)" x2="775" y1="729"/>
      <text stroke-linecap="butt" x="596" y="745.2715" clip-path="url(#clipPath5)" font-family="sans-serif" stroke="none" stroke-miterlimit="1.45" xml:space="preserve">depth = 2</text>
      <text stroke-linecap="butt" x="596" y="759.2402" clip-path="url(#clipPath5)" font-family="sans-serif" stroke="none" stroke-miterlimit="1.45" xml:space="preserve">isPromise = true</text>
      <text stroke-linecap="butt" x="596" y="773.209" clip-path="url(#clipPath5)" font-family="sans-serif" stroke="none" stroke-miterlimit="1.45" xml:space="preserve">promise = &lt;f3(f4(f1var))&gt;</text>
      <line y2="781" fill="none" x1="592" clip-path="url(#clipPath5)" x2="775" y1="781"/>
      <rect x="913" y="479" clip-path="url(#clipPath2)" fill="rgb(255,204,0)" width="183" height="103" stroke="none"/>
      <rect x="912" y="478" clip-path="url(#clipPath2)" fill="yellow" width="1" height="105" stroke="none"/>
      <rect x="913" y="478" clip-path="url(#clipPath2)" fill="yellow" width="183" height="1" stroke="none"/>
      <rect x="913" y="582" clip-path="url(#clipPath2)" fill="rgb(178,142,0)" width="184" height="1" stroke="none"/>
      <rect x="1096" y="478" clip-path="url(#clipPath2)" fill="rgb(178,142,0)" width="1" height="104" stroke="none"/>
    </g>
    <g font-size="13px" stroke-linecap="butt" transform="matrix(1,0,0,1,-358,0)" text-rendering="geometricPrecision" font-family="sans-serif" shape-rendering="geometricPrecision" font-weight="bold" stroke-miterlimit="1.45">
      <text x="952.6287" xml:space="preserve" y="495.0669" clip-path="url(#clipPath6)" stroke="none">RCaller(@19b)</text>
    </g>
    <g text-rendering="geometricPrecision" shape-rendering="geometricPrecision" transform="matrix(1,0,0,1,-358,0)">
      <line y2="503" fill="none" x1="913" clip-path="url(#clipPath6)" x2="1096" y1="503"/>
      <text stroke-linecap="butt" x="917.5" y="519.2715" clip-path="url(#clipPath6)" font-family="sans-serif" stroke="none" stroke-miterlimit="1.45" xml:space="preserve">depth = 3</text>
      <text stroke-linecap="butt" x="917.5" y="533.2402" clip-path="url(#clipPath6)" font-family="sans-serif" stroke="none" stroke-miterlimit="1.45" xml:space="preserve">isPromise = false</text>
      <text stroke-linecap="butt" x="917.5" y="547.209" clip-path="url(#clipPath6)" font-family="sans-serif" stroke="none" stroke-miterlimit="1.45" xml:space="preserve">payload = {f3(f4(f1var))}</text>
      <line y2="555" fill="none" x1="913" clip-path="url(#clipPath6)" x2="1096" y1="555"/>
      <rect x="592" y="951" clip-path="url(#clipPath2)" fill="rgb(255,204,0)" width="183" height="103" stroke="none"/>
      <rect x="591" y="950" clip-path="url(#clipPath2)" fill="yellow" width="1" height="105" stroke="none"/>
      <rect x="592" y="950" clip-path="url(#clipPath2)" fill="yellow" width="183" height="1" stroke="none"/>
      <rect x="592" y="1054" clip-path="url(#clipPath2)" fill="rgb(178,142,0)" width="184" height="1" stroke="none"/>
      <rect x="775" y="950" clip-path="url(#clipPath2)" fill="rgb(178,142,0)" width="1" height="104" stroke="none"/>
    </g>
    <g font-size="13px" stroke-linecap="butt" transform="matrix(1,0,0,1,-358,0)" text-rendering="geometricPrecision" font-family="sans-serif" shape-rendering="geometricPrecision" font-weight="bold" stroke-miterlimit="1.45">
      <text x="631.2588" xml:space="preserve" y="967.0669" clip-path="url(#clipPath7)" stroke="none">RCaller(@103)</text>
    </g>
    <g text-rendering="geometricPrecision" shape-rendering="geometricPrecision" transform="matrix(1,0,0,1,-358,0)">
      <line y2="975" fill="none" x1="592" clip-path="url(#clipPath7)" x2="775" y1="975"/>
      <text stroke-linecap="butt" x="596" y="991.2715" clip-path="url(#clipPath7)" font-family="sans-serif" stroke="none" stroke-miterlimit="1.45" xml:space="preserve">depth = 1</text>
      <text stroke-linecap="butt" x="596" y="1005.2402" clip-path="url(#clipPath7)" font-family="sans-serif" stroke="none" stroke-miterlimit="1.45" xml:space="preserve">isPromise = false</text>
      <text stroke-linecap="butt" x="596" y="1019.209" clip-path="url(#clipPath7)" font-family="sans-serif" stroke="none" stroke-miterlimit="1.45" xml:space="preserve">payload = {f1(1)}</text>
      <line y2="1027" fill="none" x1="592" clip-path="url(#clipPath7)" x2="775" y1="1027"/>
      <rect x="901" y="705" clip-path="url(#clipPath2)" fill="rgb(255,204,0)" width="183" height="103" stroke="none"/>
      <rect x="900" y="704" clip-path="url(#clipPath2)" fill="yellow" width="1" height="105" stroke="none"/>
      <rect x="901" y="704" clip-path="url(#clipPath2)" fill="yellow" width="183" height="1" stroke="none"/>
      <rect x="901" y="808" clip-path="url(#clipPath2)" fill="rgb(178,142,0)" width="184" height="1" stroke="none"/>
      <rect x="1084" y="704" clip-path="url(#clipPath2)" fill="rgb(178,142,0)" width="1" height="104" stroke="none"/>
    </g>
    <g font-size="13px" stroke-linecap="butt" transform="matrix(1,0,0,1,-358,0)" text-rendering="geometricPrecision" font-family="sans-serif" shape-rendering="geometricPrecision" font-weight="bold" stroke-miterlimit="1.45">
      <text x="940.2588" xml:space="preserve" y="721.0669" clip-path="url(#clipPath8)" stroke="none">RCaller(@613)</text>
    </g>
    <g text-rendering="geometricPrecision" shape-rendering="geometricPrecision" transform="matrix(1,0,0,1,-358,0)">
      <line y2="729" fill="none" x1="901" clip-path="url(#clipPath8)" x2="1084" y1="729"/>
      <text stroke-linecap="butt" x="905" y="745.2715" clip-path="url(#clipPath8)" font-family="sans-serif" stroke="none" stroke-miterlimit="1.45" xml:space="preserve">depth = 2</text>
      <text stroke-linecap="butt" x="905" y="759.2402" clip-path="url(#clipPath8)" font-family="sans-serif" stroke="none" stroke-miterlimit="1.45" xml:space="preserve">isPromise = false</text>
      <text stroke-linecap="butt" x="905" y="773.209" clip-path="url(#clipPath8)" font-family="sans-serif" stroke="none" stroke-miterlimit="1.45" xml:space="preserve">payload = {f2(f3(f4(f1var)))}</text>
      <line y2="781" fill="none" x1="901" clip-path="url(#clipPath8)" x2="1084" y1="781"/>
      <rect x="618" y="1166" clip-path="url(#clipPath2)" fill="rgb(255,204,0)" width="131" height="36" stroke="none"/>
      <rect x="617" y="1165" clip-path="url(#clipPath2)" fill="yellow" width="1" height="38" stroke="none"/>
      <rect x="618" y="1165" clip-path="url(#clipPath2)" fill="yellow" width="131" height="1" stroke="none"/>
      <rect x="618" y="1202" clip-path="url(#clipPath2)" fill="rgb(178,142,0)" width="132" height="1" stroke="none"/>
      <rect x="749" y="1165" clip-path="url(#clipPath2)" fill="rgb(178,142,0)" width="1" height="37" stroke="none"/>
    </g>
    <g font-size="13px" stroke-linecap="butt" transform="matrix(1,0,0,1,-358,0)" text-rendering="geometricPrecision" font-family="sans-serif" shape-rendering="geometricPrecision" font-weight="bold" stroke-miterlimit="1.45">
      <text x="638.6443" xml:space="preserve" y="1182.0669" clip-path="url(#clipPath9)" stroke="none">R_GlobalEnv</text>
    </g>
    <g fill="red" text-rendering="geometricPrecision" shape-rendering="geometricPrecision" transform="matrix(1,0,0,1,-358,0)" stroke="red">
      <rect x="901" width="195" height="48" y="197" clip-path="url(#clipPath2)" stroke="none"/>
      <rect x="900" width="1" height="50" y="196" clip-path="url(#clipPath2)" stroke="none"/>
      <rect x="901" width="195" height="1" y="196" clip-path="url(#clipPath2)" stroke="none"/>
      <rect x="901" y="245" clip-path="url(#clipPath2)" fill="rgb(178,0,0)" width="196" height="1" stroke="none"/>
      <rect x="1096" y="196" clip-path="url(#clipPath2)" fill="rgb(178,0,0)" width="1" height="49" stroke="none"/>
    </g>
    <g font-size="13px" stroke-linecap="butt" transform="matrix(1,0,0,1,-358,0)" text-rendering="geometricPrecision" font-family="sans-serif" shape-rendering="geometricPrecision" font-weight="bold" stroke-miterlimit="1.45">
      <text x="921.0293" xml:space="preserve" y="213.6294" clip-path="url(#clipPath10)" stroke="none">current Truffle frame</text>
    </g>
    <g fill="rgb(255,204,0)" text-rendering="geometricPrecision" shape-rendering="geometricPrecision" transform="matrix(1,0,0,1,-358,0)" stroke="rgb(255,204,0)">
      <path d="M373.5625 977.5 L491.5625 977.5 L491.5625 992.5 L506.5625 992.5 L506.5625 1027.5 L373.5625 1027.5 Z" stroke="none" clip-path="url(#clipPath2)"/>
      <path fill="white" d="M491.5625 977.5 L491.5625 992.5 L506.5625 992.5 Z" clip-path="url(#clipPath2)" fill-rule="evenodd" stroke="none"/>
    </g>
    <g text-rendering="geometricPrecision" stroke-miterlimit="1.45" shape-rendering="geometricPrecision" transform="matrix(1,0,0,1,-358,0)" stroke-linecap="butt">
      <path fill="none" d="M373.5625 977.5 L491.5625 977.5 L491.5625 992.5 L506.5625 992.5 L506.5625 1027.5 L373.5625 1027.5 Z" clip-path="url(#clipPath2)"/>
      <path fill="none" d="M491.5625 977.5 L491.5625 992.5 L506.5625 992.5 Z" clip-path="url(#clipPath2)" fill-rule="evenodd"/>
      <text x="392.0654" xml:space="preserve" y="1006.6543" clip-path="url(#clipPath2)" font-family="sans-serif" stroke="none">parent.frame(1)</text>
    </g>
    <g fill="rgb(255,204,0)" text-rendering="geometricPrecision" shape-rendering="geometricPrecision" transform="matrix(1,0,0,1,-358,0)" stroke="rgb(255,204,0)">
      <path d="M373.5625 1159 L491.5625 1159 L491.5625 1174 L506.5625 1174 L506.5625 1209 L373.5625 1209 Z" stroke="none" clip-path="url(#clipPath2)"/>
      <path fill="white" d="M491.5625 1159 L491.5625 1174 L506.5625 1174 Z" clip-path="url(#clipPath2)" fill-rule="evenodd" stroke="none"/>
    </g>
    <g text-rendering="geometricPrecision" stroke-miterlimit="1.45" shape-rendering="geometricPrecision" transform="matrix(1,0,0,1,-358,0)" stroke-linecap="butt">
      <path fill="none" d="M373.5625 1159 L491.5625 1159 L491.5625 1174 L506.5625 1174 L506.5625 1209 L373.5625 1209 Z" clip-path="url(#clipPath2)"/>
      <path fill="none" d="M491.5625 1159 L491.5625 1174 L506.5625 1174 Z" clip-path="url(#clipPath2)" fill-rule="evenodd"/>
      <text x="392.0654" xml:space="preserve" y="1188.1543" clip-path="url(#clipPath2)" font-family="sans-serif" stroke="none">parent.frame(2)</text>
    </g>
    <g fill="rgb(255,204,0)" text-rendering="geometricPrecision" shape-rendering="geometricPrecision" transform="matrix(1,0,0,1,-358,0)" stroke="rgb(255,204,0)">
      <path d="M1177 977.5 L1295 977.5 L1295 992.5 L1310 992.5 L1310 1027.5 L1177 1027.5 Z" stroke="none" clip-path="url(#clipPath2)"/>
      <path fill="white" d="M1295 977.5 L1295 992.5 L1310 992.5 Z" clip-path="url(#clipPath2)" fill-rule="evenodd" stroke="none"/>
    </g>
    <g text-rendering="geometricPrecision" stroke-miterlimit="1.45" shape-rendering="geometricPrecision" transform="matrix(1,0,0,1,-358,0)" stroke-linecap="butt">
      <path fill="none" d="M1177 977.5 L1295 977.5 L1295 992.5 L1310 992.5 L1310 1027.5 L1177 1027.5 Z" clip-path="url(#clipPath2)"/>
      <path fill="none" d="M1295 977.5 L1295 992.5 L1310 992.5 Z" clip-path="url(#clipPath2)" fill-rule="evenodd"/>
      <text x="1205.499" xml:space="preserve" y="1006.6543" clip-path="url(#clipPath2)" font-family="sans-serif" stroke="none">sys.frame(1)</text>
    </g>
    <g fill="rgb(255,204,0)" text-rendering="geometricPrecision" shape-rendering="geometricPrecision" transform="matrix(1,0,0,1,-358,0)" stroke="rgb(255,204,0)">
      <path d="M1177 731.5 L1295 731.5 L1295 746.5 L1310 746.5 L1310 781.5 L1177 781.5 Z" stroke="none" clip-path="url(#clipPath2)"/>
      <path fill="white" d="M1295 731.5 L1295 746.5 L1310 746.5 Z" clip-path="url(#clipPath2)" fill-rule="evenodd" stroke="none"/>
    </g>
    <g text-rendering="geometricPrecision" stroke-miterlimit="1.45" shape-rendering="geometricPrecision" transform="matrix(1,0,0,1,-358,0)" stroke-linecap="butt">
      <path fill="none" d="M1177 731.5 L1295 731.5 L1295 746.5 L1310 746.5 L1310 781.5 L1177 781.5 Z" clip-path="url(#clipPath2)"/>
      <path fill="none" d="M1295 731.5 L1295 746.5 L1310 746.5 Z" clip-path="url(#clipPath2)" fill-rule="evenodd"/>
      <text x="1205.499" xml:space="preserve" y="760.6543" clip-path="url(#clipPath2)" font-family="sans-serif" stroke="none">sys.frame(2)</text>
    </g>
    <g fill="rgb(255,204,0)" text-rendering="geometricPrecision" shape-rendering="geometricPrecision" transform="matrix(1,0,0,1,-358,0)" stroke="rgb(255,204,0)">
      <path d="M1177 505.5 L1295 505.5 L1295 520.5 L1310 520.5 L1310 555.5 L1177 555.5 Z" stroke="none" clip-path="url(#clipPath2)"/>
      <path fill="white" d="M1295 505.5 L1295 520.5 L1310 520.5 Z" clip-path="url(#clipPath2)" fill-rule="evenodd" stroke="none"/>
    </g>
    <g text-rendering="geometricPrecision" stroke-miterlimit="1.45" shape-rendering="geometricPrecision" transform="matrix(1,0,0,1,-358,0)" stroke-linecap="butt">
      <path fill="none" d="M1177 505.5 L1295 505.5 L1295 520.5 L1310 520.5 L1310 555.5 L1177 555.5 Z" clip-path="url(#clipPath2)"/>
      <path fill="none" d="M1295 505.5 L1295 520.5 L1310 520.5 Z" clip-path="url(#clipPath2)" fill-rule="evenodd"/>
      <text x="1205.499" xml:space="preserve" y="534.6543" clip-path="url(#clipPath2)" font-family="sans-serif" stroke="none">sys.frame(3)</text>
    </g>
    <g fill="rgb(255,204,0)" text-rendering="geometricPrecision" shape-rendering="geometricPrecision" transform="matrix(1,0,0,1,-358,0)" stroke="rgb(255,204,0)">
      <path d="M1177 311 L1295 311 L1295 326 L1310 326 L1310 361 L1177 361 Z" stroke="none" clip-path="url(#clipPath2)"/>
      <path fill="white" d="M1295 311 L1295 326 L1310 326 Z" clip-path="url(#clipPath2)" fill-rule="evenodd" stroke="none"/>
    </g>
    <g text-rendering="geometricPrecision" stroke-miterlimit="1.45" shape-rendering="geometricPrecision" transform="matrix(1,0,0,1,-358,0)" stroke-linecap="butt">
      <path fill="none" d="M1177 311 L1295 311 L1295 326 L1310 326 L1310 361 L1177 361 Z" clip-path="url(#clipPath2)"/>
      <path fill="none" d="M1295 311 L1295 326 L1310 326 Z" clip-path="url(#clipPath2)" fill-rule="evenodd"/>
      <text x="1205.499" xml:space="preserve" y="340.1543" clip-path="url(#clipPath2)" font-family="sans-serif" stroke="none">sys.frame(4)</text>
    </g>
    <g fill="rgb(255,204,0)" text-rendering="geometricPrecision" shape-rendering="geometricPrecision" transform="matrix(1,0,0,1,-358,0)" stroke="rgb(255,204,0)">
      <path d="M1177 1153 L1295 1153 L1295 1168 L1310 1168 L1310 1203 L1177 1203 Z" stroke="none" clip-path="url(#clipPath2)"/>
      <path fill="white" d="M1295 1153 L1295 1168 L1310 1168 Z" clip-path="url(#clipPath2)" fill-rule="evenodd" stroke="none"/>
    </g>
    <g text-rendering="geometricPrecision" stroke-miterlimit="1.45" shape-rendering="geometricPrecision" transform="matrix(1,0,0,1,-358,0)" stroke-linecap="butt">
      <path fill="none" d="M1177 1153 L1295 1153 L1295 1168 L1310 1168 L1310 1203 L1177 1203 Z" clip-path="url(#clipPath2)"/>
      <path fill="none" d="M1295 1153 L1295 1168 L1310 1168 Z" clip-path="url(#clipPath2)" fill-rule="evenodd"/>
      <text x="1205.499" xml:space="preserve" y="1182.1543" clip-path="url(#clipPath2)" font-family="sans-serif" stroke="none">sys.frame(0)</text>
      <path fill="none" stroke-dasharray="6,2" d="M683.5 388.4713 L683.5 472.9674" clip-path="url(#clipPath2)"/>
      <path stroke-dasharray="6,2" d="M683.5 476.9674 L689.5 464.9674 L683.5 476.9674 L677.5 464.9674 Z" clip-path="url(#clipPath2)" stroke="none"/>
      <path fill="none" stroke-miterlimit="10" d="M683.5 476.9674 L689.5 464.9674 L683.5 476.9674 L677.5 464.9674 Z" clip-path="url(#clipPath2)" stroke-linecap="square"/>
      <text x="627.7158" xml:space="preserve" y="437.4043" clip-path="url(#clipPath2)" font-family="sans-serif" stroke="none">previous</text>
      <path fill="none" stroke-dasharray="6,2" d="M683.5 582.9998 L683.5 699.0179" clip-path="url(#clipPath2)"/>
      <path stroke-dasharray="6,2" d="M683.5 703.0179 L689.5 691.0179 L683.5 703.0179 L677.5 691.0179 Z" clip-path="url(#clipPath2)" stroke="none"/>
      <path fill="none" stroke-miterlimit="10" d="M683.5 703.0179 L689.5 691.0179 L683.5 703.0179 L677.5 691.0179 Z" clip-path="url(#clipPath2)" stroke-linecap="square"/>
      <text x="629.6406" xml:space="preserve" y="647.6543" clip-path="url(#clipPath2)" font-family="sans-serif" stroke="none">payload</text>
      <path fill="none" stroke-dasharray="6,2" d="M776.0019 530.5 L907.5007 530.5" clip-path="url(#clipPath2)"/>
      <path stroke-dasharray="6,2" d="M911.5007 530.5 L899.5007 524.5 L911.5007 530.5 L899.5007 536.5 Z" clip-path="url(#clipPath2)" stroke="none"/>
      <path fill="none" stroke-miterlimit="10" d="M911.5007 530.5 L899.5007 524.5 L911.5007 530.5 L899.5007 536.5 Z" clip-path="url(#clipPath2)" stroke-linecap="square"/>
      <text x="818.4658" xml:space="preserve" y="564.6543" clip-path="url(#clipPath2)" font-family="sans-serif" stroke="none">previous</text>
      <path fill="none" stroke-dasharray="6,2" d="M930.3156 582.9998 L762.2799 701.1213" clip-path="url(#clipPath2)"/>
      <path stroke-dasharray="6,2" d="M759.0076 703.4216 L772.2751 701.4291 L759.0076 703.4216 L765.3741 691.612 Z" clip-path="url(#clipPath2)" stroke="none"/>
      <path fill="none" stroke-miterlimit="10" d="M759.0076 703.4216 L772.2751 701.4291 L759.0076 703.4216 L765.3741 691.612 Z" clip-path="url(#clipPath2)" stroke-linecap="square"/>
      <text x="784.5399" xml:space="preserve" y="634.8322" clip-path="url(#clipPath2)" font-family="sans-serif" stroke="none">previous</text>
      <path fill="none" stroke-dasharray="6,2" d="M683.5 809.0212 L683.5 945.0208" clip-path="url(#clipPath2)"/>
      <path stroke-dasharray="6,2" d="M683.5 949.0208 L689.5 937.0208 L683.5 949.0208 L677.5 937.0208 Z" clip-path="url(#clipPath2)" stroke="none"/>
      <path fill="none" stroke-miterlimit="10" d="M683.5 949.0208 L689.5 937.0208 L683.5 949.0208 L677.5 937.0208 Z" clip-path="url(#clipPath2)" stroke-linecap="square"/>
      <text x="629.6406" xml:space="preserve" y="883.6543" clip-path="url(#clipPath2)" font-family="sans-serif" stroke="none">payload</text>
      <path fill="none" stroke-dasharray="6,2" d="M776.0265 756.5 L894.9861 756.5" clip-path="url(#clipPath2)"/>
      <path stroke-dasharray="6,2" d="M898.9861 756.5 L886.9861 750.5 L898.9861 756.5 L886.9861 762.5 Z" clip-path="url(#clipPath2)" stroke="none"/>
      <path fill="none" stroke-miterlimit="10" d="M898.9861 756.5 L886.9861 750.5 L898.9861 756.5 L886.9861 762.5 Z" clip-path="url(#clipPath2)" stroke-linecap="square"/>
      <text x="812.2158" xml:space="preserve" y="790.6543" clip-path="url(#clipPath2)" font-family="sans-serif" stroke="none">previous</text>
      <path fill="none" stroke-dasharray="6,2" d="M926.5282 809.0212 L753.3604 946.8829" clip-path="url(#clipPath2)"/>
      <path stroke-dasharray="6,2" d="M750.231 949.3743 L763.3563 946.5943 L750.231 949.3743 L755.8821 937.2061 Z" clip-path="url(#clipPath2)" stroke="none"/>
      <path fill="none" stroke-miterlimit="10" d="M750.231 949.3743 L763.3563 946.5943 L750.231 949.3743 L755.8821 937.2061 Z" clip-path="url(#clipPath2)" stroke-linecap="square"/>
      <text x="773.2037" xml:space="preserve" y="876.3665" clip-path="url(#clipPath2)" font-family="sans-serif" stroke="none">previous</text>
      <path fill="none" stroke-dasharray="6,2" d="M683.5 1055.0092 L683.5 1160.0104" clip-path="url(#clipPath2)"/>
      <path stroke-dasharray="6,2" d="M683.5 1164.0104 L689.5 1152.0104 L683.5 1164.0104 L677.5 1152.0104 Z" clip-path="url(#clipPath2)" stroke="none"/>
      <path fill="none" stroke-miterlimit="10" d="M683.5 1164.0104 L689.5 1152.0104 L683.5 1164.0104 L677.5 1152.0104 Z" clip-path="url(#clipPath2)" stroke-linecap="square"/>
      <text x="627.7158" xml:space="preserve" y="1114.1543" clip-path="url(#clipPath2)" font-family="sans-serif" stroke="none">previous</text>
      <path fill="none" d="M782.5537 300.0429 L929.8667 246.5675" clip-path="url(#clipPath2)"/>
      <path d="M775.9738 302.4315 L780.8476 295.343 L789.1335 297.6544 L784.2598 304.7428 Z" clip-path="url(#clipPath2)" stroke="none"/>
      <text x="803.3521" xml:space="preserve" y="251.3882" clip-path="url(#clipPath2)" font-family="sans-serif" stroke="none">INDEX_CALL</text>
      <path fill="none" d="M506.5383 1002.5 L591.0012 1002.5" clip-path="url(#clipPath2)"/>
      <path fill="none" d="M506.5383 1184 L617.0098 1184" clip-path="url(#clipPath2)"/>
      <path fill="none" d="M776.0244 1002.5 L1176.9908 1002.5" clip-path="url(#clipPath2)"/>
      <path fill="none" d="M1085.0011 756.5 L1176.9816 756.5" clip-path="url(#clipPath2)"/>
      <path fill="none" d="M1097.4944 530.5 L1177.0204 530.5" clip-path="url(#clipPath2)"/>
      <path fill="none" d="M776.0244 336 L1176.9908 336" clip-path="url(#clipPath2)"/>
      <path fill="none" d="M749.9795 1183.2877 L1177.0205 1178.7123" clip-path="url(#clipPath2)"/>
    </g>
  </g>
</svg>
