<?xml version="1.0" encoding="UTF-8"?>
<svg xmlns="http://www.w3.org/2000/svg" fill-opacity="1" color-rendering="auto" color-interpolation="auto"
     text-rendering="auto" stroke="black" stroke-linecap="square" width="1019" stroke-miterlimit="10"
     shape-rendering="auto" stroke-opacity="1" fill="black" stroke-dasharray="none" font-weight="normal"
     stroke-width="1" height="1317" font-family="'Dialog'" font-style="normal" stroke-linejoin="miter" font-size="12px"
     stroke-dashoffset="0" image-rendering="auto">
  <!--Generated by ySVG 2.5-->
  <defs id="genericDefs"/>
  <g>
    <defs id="defs1">
      <clipPath clipPathUnits="userSpaceOnUse" id="clipPath1">
        <path d="M0 0 L1019 0 L1019 1317 L0 1317 L0 0 Z"/>
      </clipPath>
      <clipPath clipPathUnits="userSpaceOnUse" id="clipPath2">
        <path d="M376 -335 L1395 -335 L1395 982 L376 982 L376 -335 Z"/>
      </clipPath>
      <clipPath clipPathUnits="userSpaceOnUse" id="clipPath3">
        <path d="M809 186 L809 236 L1006 236 L1006 186 Z"/>
      </clipPath>
      <clipPath clipPathUnits="userSpaceOnUse" id="clipPath4">
        <path d="M617 329 L617 434 L828 434 L828 329 Z"/>
      </clipPath>
      <clipPath clipPathUnits="userSpaceOnUse" id="clipPath5">
        <path d="M604 527 L604 632 L842 632 L842 527 Z"/>
      </clipPath>
      <clipPath clipPathUnits="userSpaceOnUse" id="clipPath6">
        <path d="M617 731 L617 836 L828 836 L828 731 Z"/>
      </clipPath>
      <clipPath clipPathUnits="userSpaceOnUse" id="clipPath7">
        <path d="M964 527 L964 632 L1175 632 L1175 527 Z"/>
      </clipPath>
      <clipPath clipPathUnits="userSpaceOnUse" id="clipPath8">
        <path d="M656 929 L656 967 L789 967 L789 929 Z"/>
      </clipPath>
      <clipPath clipPathUnits="userSpaceOnUse" id="clipPath9">
        <path d="M964 726 L964 831 L1175 831 L1175 726 Z"/>
      </clipPath>
    </defs>
    <g fill="white" text-rendering="geometricPrecision" shape-rendering="geometricPrecision" transform="translate(-376,335)" stroke="white">
      <rect x="376" width="1019" height="1317" y="-335" clip-path="url(#clipPath2)" stroke="none"/>
    </g>
    <g fill="red" text-rendering="geometricPrecision" shape-rendering="geometricPrecision" transform="matrix(1,0,0,1,-376,335)" stroke="red">
      <rect x="810" width="195" height="48" y="187" clip-path="url(#clipPath2)" stroke="none"/>
      <rect x="809" width="1" height="50" y="186" clip-path="url(#clipPath2)" stroke="none"/>
      <rect x="810" width="195" height="1" y="186" clip-path="url(#clipPath2)" stroke="none"/>
      <rect x="810" y="235" clip-path="url(#clipPath2)" fill="rgb(178,0,0)" width="196" height="1" stroke="none"/>
      <rect x="1005" y="186" clip-path="url(#clipPath2)" fill="rgb(178,0,0)" width="1" height="49" stroke="none"/>
    </g>
    <g font-size="13px" stroke-linecap="butt" transform="matrix(1,0,0,1,-376,335)" text-rendering="geometricPrecision" font-family="sans-serif" shape-rendering="geometricPrecision" font-weight="bold" stroke-miterlimit="1.45">
      <text x="830.5293" xml:space="preserve" y="203.0669" clip-path="url(#clipPath3)" stroke="none">current Truffle frame</text>
    </g>
    <g fill="rgb(255,204,0)" text-rendering="geometricPrecision" shape-rendering="geometricPrecision" transform="matrix(1,0,0,1,-376,335)" stroke="rgb(255,204,0)">
      <rect x="618" width="209" height="103" y="330" clip-path="url(#clipPath2)" stroke="none"/>
      <rect x="617" y="329" clip-path="url(#clipPath2)" fill="yellow" width="1" height="105" stroke="none"/>
      <rect x="618" y="329" clip-path="url(#clipPath2)" fill="yellow" width="209" height="1" stroke="none"/>
      <rect x="618" y="433" clip-path="url(#clipPath2)" fill="rgb(178,142,0)" width="210" height="1" stroke="none"/>
      <rect x="827" y="329" clip-path="url(#clipPath2)" fill="rgb(178,142,0)" width="1" height="104" stroke="none"/>
    </g>
    <g font-size="13px" stroke-linecap="butt" transform="matrix(1,0,0,1,-376,335)" text-rendering="geometricPrecision" font-family="sans-serif" shape-rendering="geometricPrecision" font-weight="bold" stroke-miterlimit="1.45">
      <text x="670.8953" xml:space="preserve" y="346.0669" clip-path="url(#clipPath4)" stroke="none">RCaller(@5a7)</text>
    </g>
    <g text-rendering="geometricPrecision" shape-rendering="geometricPrecision" transform="matrix(1,0,0,1,-376,335)">
      <line y2="354" fill="none" x1="618" clip-path="url(#clipPath4)" x2="827" y1="354"/>
      <text stroke-linecap="butt" x="622.25" y="370.2715" clip-path="url(#clipPath4)" font-family="sans-serif" stroke="none" stroke-miterlimit="1.45" xml:space="preserve">depth = 3</text>
      <text stroke-linecap="butt" x="622.25" y="384.2402" clip-path="url(#clipPath4)" font-family="sans-serif" stroke="none" stroke-miterlimit="1.45" xml:space="preserve">isPromise = false</text>
      <text stroke-linecap="butt" x="622.25" y="398.209" clip-path="url(#clipPath4)" font-family="sans-serif" stroke="none" stroke-miterlimit="1.45" xml:space="preserve">payload = {after_pkgB_loaded()}</text>
      <line y2="406" fill="none" x1="618" clip-path="url(#clipPath4)" x2="827" y1="406"/>
      <rect x="605" y="528" clip-path="url(#clipPath2)" fill="rgb(204,255,204)" width="236" height="103" stroke="none"/>
      <rect x="604" y="527" clip-path="url(#clipPath2)" fill="white" width="1" height="105" stroke="none"/>
      <rect x="605" y="527" clip-path="url(#clipPath2)" fill="white" width="236" height="1" stroke="none"/>
      <rect x="605" y="631" clip-path="url(#clipPath2)" fill="rgb(142,178,142)" width="237" height="1" stroke="none"/>
      <rect x="841" y="527" clip-path="url(#clipPath2)" fill="rgb(142,178,142)" width="1" height="104" stroke="none"/>
    </g>
    <g font-size="13px" stroke-linecap="butt" transform="matrix(1,0,0,1,-376,335)" text-rendering="geometricPrecision" font-family="sans-serif" shape-rendering="geometricPrecision" font-weight="bold" stroke-miterlimit="1.45">
      <text x="670.7588" xml:space="preserve" y="544.0669" clip-path="url(#clipPath5)" stroke="none">RCaller(@135)</text>
    </g>
    <g text-rendering="geometricPrecision" shape-rendering="geometricPrecision" transform="matrix(1,0,0,1,-376,335)">
      <line y2="552" fill="none" x1="605" clip-path="url(#clipPath5)" x2="841" y1="552"/>
      <text stroke-linecap="butt" x="609" y="568.2715" clip-path="url(#clipPath5)" font-family="sans-serif" stroke="none" stroke-miterlimit="1.45" xml:space="preserve">depth = 2</text>
      <text stroke-linecap="butt" x="609" y="582.2402" clip-path="url(#clipPath5)" font-family="sans-serif" stroke="none" stroke-miterlimit="1.45" xml:space="preserve">isPromise = true</text>
      <text stroke-linecap="butt" x="609" y="596.209" clip-path="url(#clipPath5)" font-family="sans-serif" stroke="none" stroke-miterlimit="1.45" xml:space="preserve">promise = &lt;{after_pkgB_loaded()}&gt;</text>
      <line y2="604" fill="none" x1="605" clip-path="url(#clipPath5)" x2="841" y1="604"/>
      <rect x="618" y="732" clip-path="url(#clipPath2)" fill="rgb(255,102,0)" width="209" height="103" stroke="none"/>
      <rect x="617" y="731" clip-path="url(#clipPath2)" fill="rgb(255,145,0)" width="1" height="105" stroke="none"/>
      <rect x="618" y="731" clip-path="url(#clipPath2)" fill="rgb(255,145,0)" width="209" height="1" stroke="none"/>
      <rect x="618" y="835" clip-path="url(#clipPath2)" fill="rgb(178,71,0)" width="210" height="1" stroke="none"/>
      <rect x="827" y="731" clip-path="url(#clipPath2)" fill="rgb(178,71,0)" width="1" height="104" stroke="none"/>
    </g>
    <g font-size="13px" stroke-linecap="butt" transform="matrix(1,0,0,1,-376,335)" text-rendering="geometricPrecision" font-family="sans-serif" shape-rendering="geometricPrecision" font-weight="bold" stroke-miterlimit="1.45">
      <text x="670.7588" xml:space="preserve" y="748.0669" clip-path="url(#clipPath6)" stroke="none">RCaller(@178)</text>
    </g>
    <g text-rendering="geometricPrecision" shape-rendering="geometricPrecision" transform="matrix(1,0,0,1,-376,335)">
      <line y2="756" fill="none" x1="618" clip-path="url(#clipPath6)" x2="827" y1="756"/>
      <text stroke-linecap="butt" x="622.25" y="772.2715" clip-path="url(#clipPath6)" font-family="sans-serif" stroke="none" stroke-miterlimit="1.45" xml:space="preserve">depth = 1</text>
      <text stroke-linecap="butt" x="622.25" y="786.2402" clip-path="url(#clipPath6)" font-family="sans-serif" stroke="none" stroke-miterlimit="1.45" xml:space="preserve">isPromise = false</text>
      <text stroke-linecap="butt" x="622.25" y="800.209" clip-path="url(#clipPath6)" font-family="sans-serif" stroke="none" stroke-miterlimit="1.45" xml:space="preserve">payload = {onLoad()}</text>
      <line y2="808" fill="none" x1="618" clip-path="url(#clipPath6)" x2="827" y1="808"/>
      <rect x="965" y="528" clip-path="url(#clipPath2)" fill="rgb(255,204,0)" width="209" height="103" stroke="none"/>
      <rect x="964" y="527" clip-path="url(#clipPath2)" fill="yellow" width="1" height="105" stroke="none"/>
      <rect x="965" y="527" clip-path="url(#clipPath2)" fill="yellow" width="209" height="1" stroke="none"/>
      <rect x="965" y="631" clip-path="url(#clipPath2)" fill="rgb(178,142,0)" width="210" height="1" stroke="none"/>
      <rect x="1174" y="527" clip-path="url(#clipPath2)" fill="rgb(178,142,0)" width="1" height="104" stroke="none"/>
    </g>
    <g font-size="13px" stroke-linecap="butt" transform="matrix(1,0,0,1,-376,335)" text-rendering="geometricPrecision" font-family="sans-serif" shape-rendering="geometricPrecision" font-weight="bold" stroke-miterlimit="1.45">
      <text x="1017.5088" xml:space="preserve" y="544.0669" clip-path="url(#clipPath7)" stroke="none">RCaller(@525)</text>
    </g>
    <g text-rendering="geometricPrecision" shape-rendering="geometricPrecision" transform="matrix(1,0,0,1,-376,335)">
      <line y2="552" fill="none" x1="965" clip-path="url(#clipPath7)" x2="1174" y1="552"/>
      <text stroke-linecap="butt" x="969" y="568.2715" clip-path="url(#clipPath7)" font-family="sans-serif" stroke="none" stroke-miterlimit="1.45" xml:space="preserve">depth = 2</text>
      <text stroke-linecap="butt" x="969" y="582.2402" clip-path="url(#clipPath7)" font-family="sans-serif" stroke="none" stroke-miterlimit="1.45" xml:space="preserve">isPromise = false</text>
      <text stroke-linecap="butt" x="969" y="596.209" clip-path="url(#clipPath7)" font-family="sans-serif" stroke="none" stroke-miterlimit="1.45" xml:space="preserve">payload = {saved_hook()}</text>
      <line y2="604" fill="none" x1="965" clip-path="url(#clipPath7)" x2="1174" y1="604"/>
      <rect x="657" y="930" clip-path="url(#clipPath2)" fill="rgb(255,204,0)" width="131" height="36" stroke="none"/>
      <rect x="656" y="929" clip-path="url(#clipPath2)" fill="yellow" width="1" height="38" stroke="none"/>
      <rect x="657" y="929" clip-path="url(#clipPath2)" fill="yellow" width="131" height="1" stroke="none"/>
      <rect x="657" y="966" clip-path="url(#clipPath2)" fill="rgb(178,142,0)" width="132" height="1" stroke="none"/>
      <rect x="788" y="929" clip-path="url(#clipPath2)" fill="rgb(178,142,0)" width="1" height="37" stroke="none"/>
    </g>
    <g font-size="13px" stroke-linecap="butt" transform="matrix(1,0,0,1,-376,335)" text-rendering="geometricPrecision" font-family="sans-serif" shape-rendering="geometricPrecision" font-weight="bold" stroke-miterlimit="1.45">
      <text x="678.1443" xml:space="preserve" y="946.0669" clip-path="url(#clipPath8)" stroke="none">R_GlobalEnv</text>
    </g>
    <g fill="rgb(255,204,0)" text-rendering="geometricPrecision" shape-rendering="geometricPrecision" transform="matrix(1,0,0,1,-376,335)" stroke="rgb(255,204,0)">
      <rect x="965" width="209" height="103" y="727" clip-path="url(#clipPath2)" stroke="none"/>
      <rect x="964" y="726" clip-path="url(#clipPath2)" fill="yellow" width="1" height="105" stroke="none"/>
      <rect x="965" y="726" clip-path="url(#clipPath2)" fill="yellow" width="209" height="1" stroke="none"/>
      <rect x="965" y="830" clip-path="url(#clipPath2)" fill="rgb(178,142,0)" width="210" height="1" stroke="none"/>
      <rect x="1174" y="726" clip-path="url(#clipPath2)" fill="rgb(178,142,0)" width="1" height="104" stroke="none"/>
    </g>
    <g font-size="13px" stroke-linecap="butt" transform="matrix(1,0,0,1,-376,335)" text-rendering="geometricPrecision" font-family="sans-serif" shape-rendering="geometricPrecision" font-weight="bold" stroke-miterlimit="1.45">
      <text x="1017.623" xml:space="preserve" y="743.0669" clip-path="url(#clipPath9)" stroke="none">RCaller(@e56)</text>
    </g>
    <g text-rendering="geometricPrecision" shape-rendering="geometricPrecision" transform="matrix(1,0,0,1,-376,335)">
      <line y2="751" fill="none" x1="965" clip-path="url(#clipPath9)" x2="1174" y1="751"/>
      <text stroke-linecap="butt" x="969" y="767.2715" clip-path="url(#clipPath9)" font-family="sans-serif" stroke="none" stroke-miterlimit="1.45" xml:space="preserve">depth = 1</text>
      <text stroke-linecap="butt" x="969" y="781.2402" clip-path="url(#clipPath9)" font-family="sans-serif" stroke="none" stroke-miterlimit="1.45" xml:space="preserve">isPromise = false</text>
      <text stroke-linecap="butt" x="969" y="795.209" clip-path="url(#clipPath9)" font-family="sans-serif" stroke="none" stroke-miterlimit="1.45" xml:space="preserve">payload = {load_pkgB()}</text>
      <line y2="803" fill="none" x1="965" clip-path="url(#clipPath9)" x2="1174" y1="803"/>
      <path fill="rgb(255,102,0)" d="M418 662 L559 662 L559 677 L574 677 L574 724 L418 724 Z" clip-path="url(#clipPath2)" stroke="none"/>
      <path fill="white" d="M559 662 L559 677 L574 677 Z" clip-path="url(#clipPath2)" fill-rule="evenodd" stroke="none"/>
      <path fill="none" stroke-miterlimit="1.45" d="M418 662 L559 662 L559 677 L574 677 L574 724 L418 724 Z" clip-path="url(#clipPath2)" stroke-linecap="butt"/>
      <path fill="none" stroke-miterlimit="1.45" d="M559 662 L559 677 L574 677 Z" fill-rule="evenodd" clip-path="url(#clipPath2)" stroke-linecap="butt"/>
    </g>
    <g stroke-linecap="butt" transform="matrix(1,0,0,1,-376,335)" text-rendering="geometricPrecision" font-family="sans-serif" shape-rendering="geometricPrecision" font-weight="bold" stroke-miterlimit="1.45">
      <text x="425.2129" xml:space="preserve" y="697.1543" clip-path="url(#clipPath2)" stroke="none">Not in Truffle frames</text>
    </g>
    <g fill="rgb(255,204,0)" text-rendering="geometricPrecision" shape-rendering="geometricPrecision" transform="matrix(1,0,0,1,-376,335)" stroke="rgb(255,204,0)">
      <path d="M1261 929 L1365 929 L1365 944 L1380 944 L1380 967 L1261 967 Z" stroke="none" clip-path="url(#clipPath2)"/>
      <path fill="white" d="M1365 929 L1365 944 L1380 944 Z" clip-path="url(#clipPath2)" fill-rule="evenodd" stroke="none"/>
    </g>
    <g text-rendering="geometricPrecision" stroke-miterlimit="1.45" shape-rendering="geometricPrecision" transform="matrix(1,0,0,1,-376,335)" stroke-linecap="butt">
      <path fill="none" d="M1261 929 L1365 929 L1365 944 L1380 944 L1380 967 L1261 967 Z" clip-path="url(#clipPath2)"/>
      <path fill="none" d="M1365 929 L1365 944 L1380 944 Z" clip-path="url(#clipPath2)" fill-rule="evenodd"/>
      <text x="1282.499" xml:space="preserve" y="952.1543" clip-path="url(#clipPath2)" font-family="sans-serif" stroke="none">sys.frame(0)</text>
    </g>
    <g fill="rgb(255,204,0)" text-rendering="geometricPrecision" shape-rendering="geometricPrecision" transform="matrix(1,0,0,1,-376,335)" stroke="rgb(255,204,0)">
      <path d="M1261 759.5 L1365 759.5 L1365 774.5 L1380 774.5 L1380 797.5 L1261 797.5 Z" stroke="none" clip-path="url(#clipPath2)"/>
      <path fill="white" d="M1365 759.5 L1365 774.5 L1380 774.5 Z" clip-path="url(#clipPath2)" fill-rule="evenodd" stroke="none"/>
    </g>
    <g text-rendering="geometricPrecision" stroke-miterlimit="1.45" shape-rendering="geometricPrecision" transform="matrix(1,0,0,1,-376,335)" stroke-linecap="butt">
      <path fill="none" d="M1261 759.5 L1365 759.5 L1365 774.5 L1380 774.5 L1380 797.5 L1261 797.5 Z" clip-path="url(#clipPath2)"/>
      <path fill="none" d="M1365 759.5 L1365 774.5 L1380 774.5 Z" clip-path="url(#clipPath2)" fill-rule="evenodd"/>
      <text x="1282.499" xml:space="preserve" y="782.6543" clip-path="url(#clipPath2)" font-family="sans-serif" stroke="none">sys.frame(1)</text>
    </g>
    <g fill="rgb(255,204,0)" text-rendering="geometricPrecision" shape-rendering="geometricPrecision" transform="matrix(1,0,0,1,-376,335)" stroke="rgb(255,204,0)">
      <path d="M1261 560.5 L1365 560.5 L1365 575.5 L1380 575.5 L1380 598.5 L1261 598.5 Z" stroke="none" clip-path="url(#clipPath2)"/>
      <path fill="white" d="M1365 560.5 L1365 575.5 L1380 575.5 Z" clip-path="url(#clipPath2)" fill-rule="evenodd" stroke="none"/>
    </g>
    <g text-rendering="geometricPrecision" stroke-miterlimit="1.45" shape-rendering="geometricPrecision" transform="matrix(1,0,0,1,-376,335)" stroke-linecap="butt">
      <path fill="none" d="M1261 560.5 L1365 560.5 L1365 575.5 L1380 575.5 L1380 598.5 L1261 598.5 Z" clip-path="url(#clipPath2)"/>
      <path fill="none" d="M1365 560.5 L1365 575.5 L1380 575.5 Z" clip-path="url(#clipPath2)" fill-rule="evenodd"/>
      <text x="1282.499" xml:space="preserve" y="583.6543" clip-path="url(#clipPath2)" font-family="sans-serif" stroke="none">sys.frame(2)</text>
    </g>
    <g fill="rgb(255,204,0)" text-rendering="geometricPrecision" shape-rendering="geometricPrecision" transform="matrix(1,0,0,1,-376,335)" stroke="rgb(255,204,0)">
      <path d="M1261 362.5 L1365 362.5 L1365 377.5 L1380 377.5 L1380 400.5 L1261 400.5 Z" stroke="none" clip-path="url(#clipPath2)"/>
      <path fill="white" d="M1365 362.5 L1365 377.5 L1380 377.5 Z" clip-path="url(#clipPath2)" fill-rule="evenodd" stroke="none"/>
    </g>
    <g text-rendering="geometricPrecision" stroke-miterlimit="1.45" shape-rendering="geometricPrecision" transform="matrix(1,0,0,1,-376,335)" stroke-linecap="butt">
      <path fill="none" d="M1261 362.5 L1365 362.5 L1365 377.5 L1380 377.5 L1380 400.5 L1261 400.5 Z" clip-path="url(#clipPath2)"/>
      <path fill="none" d="M1365 362.5 L1365 377.5 L1380 377.5 Z" clip-path="url(#clipPath2)" fill-rule="evenodd"/>
      <text x="1282.499" xml:space="preserve" y="385.6543" clip-path="url(#clipPath2)" font-family="sans-serif" stroke="none">sys.frame(3)</text>
    </g>
    <g fill="rgb(255,204,0)" text-rendering="geometricPrecision" shape-rendering="geometricPrecision" transform="matrix(1,0,0,1,-376,335)" stroke="rgb(255,204,0)">
      <path d="M391 764.5 L495 764.5 L495 779.5 L510 779.5 L510 802.5 L391 802.5 Z" stroke="none" clip-path="url(#clipPath2)"/>
      <path fill="white" d="M495 764.5 L495 779.5 L510 779.5 Z" clip-path="url(#clipPath2)" fill-rule="evenodd" stroke="none"/>
    </g>
    <g text-rendering="geometricPrecision" stroke-miterlimit="1.45" shape-rendering="geometricPrecision" transform="matrix(1,0,0,1,-376,335)" stroke-linecap="butt">
      <path fill="none" d="M391 764.5 L495 764.5 L495 779.5 L510 779.5 L510 802.5 L391 802.5 Z" clip-path="url(#clipPath2)"/>
      <path fill="none" d="M495 764.5 L495 779.5 L510 779.5 Z" clip-path="url(#clipPath2)" fill-rule="evenodd"/>
      <text x="402.5029" xml:space="preserve" y="787.6543" clip-path="url(#clipPath2)" font-family="sans-serif" stroke="none">parent.frame(1)</text>
    </g>
    <g fill="rgb(255,204,0)" text-rendering="geometricPrecision" shape-rendering="geometricPrecision" transform="matrix(1,0,0,1,-376,335)" stroke="rgb(255,204,0)">
      <path d="M391 929 L495 929 L495 944 L510 944 L510 967 L391 967 Z" stroke="none" clip-path="url(#clipPath2)"/>
      <path fill="white" d="M495 929 L495 944 L510 944 Z" clip-path="url(#clipPath2)" fill-rule="evenodd" stroke="none"/>
    </g>
    <g text-rendering="geometricPrecision" stroke-miterlimit="1.45" shape-rendering="geometricPrecision" transform="matrix(1,0,0,1,-376,335)" stroke-linecap="butt">
      <path fill="none" d="M391 929 L495 929 L495 944 L510 944 L510 967 L391 967 Z" clip-path="url(#clipPath2)"/>
      <path fill="none" d="M495 929 L495 944 L510 944 Z" clip-path="url(#clipPath2)" fill-rule="evenodd"/>
      <text x="402.5029" xml:space="preserve" y="952.1543" clip-path="url(#clipPath2)" font-family="sans-serif" stroke="none">parent.frame(2)</text>
      <path fill="none" d="M690 -318 L1245 -318 L1245 -303 L1260 -303 L1260 156 L690 156 Z" clip-path="url(#clipPath2)"/>
      <path fill="none" d="M1245 -318 L1245 -303 L1260 -303 Z" clip-path="url(#clipPath2)" fill-rule="evenodd"/>
      <text x="696" font-size="13px" y="-305.1527" clip-path="url(#clipPath2)" font-family="'Source Code Pro'" stroke="none" xml:space="preserve">saved_hook &lt;- NULL</text>
      <text x="696" font-size="13px" y="-288.8117" clip-path="url(#clipPath2)" font-family="'Source Code Pro'" stroke="none" xml:space="preserve"> </text>
      <text x="696" font-size="13px" y="-272.4707" clip-path="url(#clipPath2)" font-family="'Source Code Pro'" stroke="none" xml:space="preserve">onLoad &lt;- function() {</text>
      <text x="696" font-size="13px" y="-256.1297" clip-path="url(#clipPath2)" font-family="'Source Code Pro'" stroke="none" xml:space="preserve">    onLoad_loc_var &lt;- 42</text>
      <text x="696" font-size="13px" y="-239.7887" clip-path="url(#clipPath2)" font-family="'Source Code Pro'" stroke="none" xml:space="preserve">    on_pkgB_load({</text>
      <text x="696" font-size="13px" y="-223.4476" clip-path="url(#clipPath2)" font-family="'Source Code Pro'" stroke="none" xml:space="preserve">        after_pkgB_loaded()</text>
      <text x="696" font-size="13px" y="-207.1066" clip-path="url(#clipPath2)" font-family="'Source Code Pro'" stroke="none" xml:space="preserve">    })</text>
      <text x="696" font-size="13px" y="-190.7656" clip-path="url(#clipPath2)" font-family="'Source Code Pro'" stroke="none" xml:space="preserve">}</text>
      <text x="696" font-size="13px" y="-174.4246" clip-path="url(#clipPath2)" font-family="'Source Code Pro'" stroke="none" xml:space="preserve"> </text>
      <text x="696" font-size="13px" y="-158.0836" clip-path="url(#clipPath2)" font-family="'Source Code Pro'" stroke="none" xml:space="preserve">on_pkgB_load &lt;- function(expr) {</text>
      <text x="696" font-size="13px" y="-141.7426" clip-path="url(#clipPath2)" font-family="'Source Code Pro'" stroke="none" xml:space="preserve">    save_hook(function() expr)</text>
      <text x="696" font-size="13px" y="-125.4015" clip-path="url(#clipPath2)" font-family="'Source Code Pro'" stroke="none" xml:space="preserve">}</text>
      <text x="696" font-size="13px" y="-109.0605" clip-path="url(#clipPath2)" font-family="'Source Code Pro'" stroke="none" xml:space="preserve"> </text>
      <text x="696" font-size="13px" y="-92.7195" clip-path="url(#clipPath2)" font-family="'Source Code Pro'" stroke="none" xml:space="preserve">save_hook &lt;- function(func) {</text>
      <text x="696" font-size="13px" y="-76.3785" clip-path="url(#clipPath2)" font-family="'Source Code Pro'" stroke="none" xml:space="preserve">    saved_hook &lt;&lt;- func</text>
      <text x="696" font-size="13px" y="-60.0375" clip-path="url(#clipPath2)" font-family="'Source Code Pro'" stroke="none" xml:space="preserve">}</text>
      <text x="696" font-size="13px" y="-43.6965" clip-path="url(#clipPath2)" font-family="'Source Code Pro'" stroke="none" xml:space="preserve"> </text>
      <text x="696" font-size="13px" y="-27.3555" clip-path="url(#clipPath2)" font-family="'Source Code Pro'" stroke="none" xml:space="preserve">load_pkgB &lt;- function() {</text>
      <text x="696" font-size="13px" y="-11.0144" clip-path="url(#clipPath2)" font-family="'Source Code Pro'" stroke="none" xml:space="preserve">    saved_hook()</text>
      <text x="696" font-size="13px" y="5.3266" clip-path="url(#clipPath2)" font-family="'Source Code Pro'" stroke="none" xml:space="preserve">}</text>
      <text x="696" font-size="13px" y="21.6676" clip-path="url(#clipPath2)" font-family="'Source Code Pro'" stroke="none" xml:space="preserve"> </text>
      <text x="696" font-size="13px" y="38.0086" clip-path="url(#clipPath2)" font-family="'Source Code Pro'" stroke="none" xml:space="preserve">after_pkgB_loaded &lt;- function() {</text>
      <text x="696" font-size="13px" y="54.3496" clip-path="url(#clipPath2)" font-family="'Source Code Pro'" stroke="none" xml:space="preserve">    .fastr.rcallertrace()</text>
      <text x="696" font-size="13px" y="70.6906" clip-path="url(#clipPath2)" font-family="'Source Code Pro'" stroke="none" xml:space="preserve">    parent.frame()</text>
      <text x="696" font-size="13px" y="87.0316" clip-path="url(#clipPath2)" font-family="'Source Code Pro'" stroke="none" xml:space="preserve">}</text>
      <text x="696" font-size="13px" y="103.3727" clip-path="url(#clipPath2)" font-family="'Source Code Pro'" stroke="none" xml:space="preserve"> </text>
      <text x="696" font-size="13px" y="119.7137" clip-path="url(#clipPath2)" font-family="'Source Code Pro'" stroke="none" xml:space="preserve">onLoad()</text>
      <text x="696" font-size="13px" y="136.0547" clip-path="url(#clipPath2)" font-family="'Source Code Pro'" stroke="none" xml:space="preserve">pf &lt;- load_pkgB()</text>
      <text x="696" font-size="13px" y="152.3957" clip-path="url(#clipPath2)" font-family="'Source Code Pro'" stroke="none" xml:space="preserve">"onLoad_loc_var" %in% ls(pf)</text>
      <path fill="none" d="M785.2045 324.2484 L881.1147 235.9747" clip-path="url(#clipPath2)"/>
      <path d="M780.054 328.9889 L781.8184 320.5695 L790.355 319.5079 L788.5905 327.9273 Z" clip-path="url(#clipPath2)" stroke="none"/>
      <text x="833.7107" xml:space="preserve" y="290.699" clip-path="url(#clipPath2)" font-family="sans-serif" stroke="none">INDEX_CALL</text>
      <path fill="none" stroke-dasharray="6,2" d="M723 434.0454 L723 521.9787" clip-path="url(#clipPath2)"/>
      <path stroke-dasharray="6,2" d="M723 525.9787 L729 513.9787 L723 525.9787 L717 513.9787 Z" clip-path="url(#clipPath2)" stroke="none"/>
      <path fill="none" stroke-miterlimit="10" d="M723 525.9787 L729 513.9787 L723 525.9787 L717 513.9787 Z" clip-path="url(#clipPath2)" stroke-linecap="square"/>
      <text x="667.2158" xml:space="preserve" y="484.6543" clip-path="url(#clipPath2)" font-family="sans-serif" stroke="none">previous</text>
      <path fill="none" stroke-dasharray="6,2" d="M723 632.0439 L723 726.0302" clip-path="url(#clipPath2)"/>
      <path stroke-dasharray="6,2" d="M723 730.0302 L729 718.0302 L723 730.0302 L717 718.0302 Z" clip-path="url(#clipPath2)" stroke="none"/>
      <path fill="none" stroke-miterlimit="10" d="M723 730.0302 L729 718.0302 L723 730.0302 L717 718.0302 Z" clip-path="url(#clipPath2)" stroke-linecap="square"/>
      <text x="669.1406" xml:space="preserve" y="685.6543" clip-path="url(#clipPath2)" font-family="sans-serif" stroke="none">payload</text>
      <path fill="none" stroke-dasharray="6,2" d="M841.9836 579.5 L959.0132 579.5" clip-path="url(#clipPath2)"/>
      <path stroke-dasharray="6,2" d="M963.0132 579.5 L951.0132 573.5 L963.0132 579.5 L951.0132 585.5 Z" clip-path="url(#clipPath2)" stroke="none"/>
      <path fill="none" stroke-miterlimit="10" d="M963.0132 579.5 L951.0132 573.5 L963.0132 579.5 L951.0132 585.5 Z" clip-path="url(#clipPath2)" stroke-linecap="square"/>
      <text x="877.2158" xml:space="preserve" y="613.6543" clip-path="url(#clipPath2)" font-family="sans-serif" stroke="none">previous</text>
      <path fill="none" stroke-dasharray="6,2" d="M723 835.9906 L723 923.9945" clip-path="url(#clipPath2)"/>
      <path stroke-dasharray="6,2" d="M723 927.9945 L729 915.9945 L723 927.9945 L717 915.9945 Z" clip-path="url(#clipPath2)" stroke="none"/>
      <path fill="none" stroke-miterlimit="10" d="M723 927.9945 L729 915.9945 L723 927.9945 L717 915.9945 Z" clip-path="url(#clipPath2)" stroke-linecap="square"/>
      <text x="667.2158" xml:space="preserve" y="886.6543" clip-path="url(#clipPath2)" font-family="sans-serif" stroke="none">previous</text>
      <path fill="none" stroke-dasharray="6,2" d="M1069.75 632.0193 L1069.75 720.9658" clip-path="url(#clipPath2)"/>
      <path stroke-dasharray="6,2" d="M1069.75 724.9658 L1075.75 712.9658 L1069.75 724.9658 L1063.75 712.9658 Z" clip-path="url(#clipPath2)" stroke="none"/>
      <path fill="none" stroke-miterlimit="10" d="M1069.75 724.9658 L1075.75 712.9658 L1069.75 724.9658 L1063.75 712.9658 Z" clip-path="url(#clipPath2)" stroke-linecap="square"/>
      <text x="1013.9658" xml:space="preserve" y="683.1543" clip-path="url(#clipPath2)" font-family="sans-serif" stroke="none">previous</text>
      <path fill="none" stroke-dasharray="6,2" d="M963.9727 830.2066 L766.35 926.8094" clip-path="url(#clipPath2)"/>
      <path stroke-dasharray="6,2" d="M762.7564 928.5661 L776.1722 928.6866 L762.7564 928.5661 L770.9023 917.9057 Z" clip-path="url(#clipPath2)" stroke="none"/>
      <path fill="none" stroke-miterlimit="10" d="M762.7564 928.5661 L776.1722 928.6866 L762.7564 928.5661 L770.9023 917.9057 Z" clip-path="url(#clipPath2)" stroke-linecap="square"/>
      <text x="814.1707" xml:space="preserve" y="861.5914" clip-path="url(#clipPath2)" font-family="sans-serif" stroke="none">previous</text>
      <path fill="none" d="M573.7819 724.0099 L617.2431 741.337" clip-path="url(#clipPath2)"/>
      <path fill="none" d="M789.4821 948 L1261.0262 948" clip-path="url(#clipPath2)"/>
      <path fill="none" d="M1175.5045 778.5 L1260.9938 778.5" clip-path="url(#clipPath2)"/>
      <path fill="none" d="M1175.5045 579.5 L1260.9938 579.5" clip-path="url(#clipPath2)"/>
      <path fill="none" d="M828.7222 381.5 L1260.9788 381.5" clip-path="url(#clipPath2)"/>
      <path fill="none" d="M510.0096 783.5 L617.2588 783.5" clip-path="url(#clipPath2)"/>
      <path fill="none" d="M510.0096 948 L656.5185 948" clip-path="url(#clipPath2)"/>
    </g>
  </g>
</svg>
