<?xml version="1.0" encoding="UTF-8"?>
<svg xmlns="http://www.w3.org/2000/svg" fill-opacity="1" color-rendering="auto" color-interpolation="auto"
     text-rendering="auto" stroke="black" stroke-linecap="square" width="1032" stroke-miterlimit="10"
     shape-rendering="auto" stroke-opacity="1" fill="black" stroke-dasharray="none" font-weight="normal"
     stroke-width="1" height="968" font-family="'Dialog'" font-style="normal" stroke-linejoin="miter" font-size="12px"
     stroke-dashoffset="0" image-rendering="auto">
  <!--Generated by ySVG 2.5-->
  <defs id="genericDefs"/>
  <g>
    <defs id="defs1">
      <clipPath clipPathUnits="userSpaceOnUse" id="clipPath1">
        <path d="M0 0 L1032 0 L1032 968 L0 968 L0 0 Z"/>
      </clipPath>
      <clipPath clipPathUnits="userSpaceOnUse" id="clipPath2">
        <path d="M377 -9 L1409 -9 L1409 959 L377 959 L377 -9 Z"/>
      </clipPath>
      <clipPath clipPathUnits="userSpaceOnUse" id="clipPath3">
        <path d="M616 309 L616 414 L801 414 L801 309 Z"/>
      </clipPath>
      <clipPath clipPathUnits="userSpaceOnUse" id="clipPath4">
        <path d="M616 503 L616 608 L801 608 L801 503 Z"/>
      </clipPath>
      <clipPath clipPathUnits="userSpaceOnUse" id="clipPath5">
        <path d="M913 503 L913 608 L1138 608 L1138 503 Z"/>
      </clipPath>
      <clipPath clipPathUnits="userSpaceOnUse" id="clipPath6">
        <path d="M616 710 L616 815 L801 815 L801 710 Z"/>
      </clipPath>
      <clipPath clipPathUnits="userSpaceOnUse" id="clipPath7">
        <path d="M642 900 L642 938 L775 938 L775 900 Z"/>
      </clipPath>
      <clipPath clipPathUnits="userSpaceOnUse" id="clipPath8">
        <path d="M793 170 L793 220 L990 220 L990 170 Z"/>
      </clipPath>
    </defs>
    <g fill="white" text-rendering="geometricPrecision" shape-rendering="geometricPrecision" transform="translate(-377,9)" stroke="white">
      <rect x="377" width="1032" height="968" y="-9" clip-path="url(#clipPath2)" stroke="none"/>
    </g>
    <g fill="rgb(255,204,0)" text-rendering="geometricPrecision" shape-rendering="geometricPrecision" transform="matrix(1,0,0,1,-377,9)" stroke="rgb(255,204,0)">
      <rect x="617" width="183" height="103" y="310" clip-path="url(#clipPath2)" stroke="none"/>
      <rect x="616" y="309" clip-path="url(#clipPath2)" fill="yellow" width="1" height="105" stroke="none"/>
      <rect x="617" y="309" clip-path="url(#clipPath2)" fill="yellow" width="183" height="1" stroke="none"/>
      <rect x="617" y="413" clip-path="url(#clipPath2)" fill="rgb(178,142,0)" width="184" height="1" stroke="none"/>
      <rect x="800" y="309" clip-path="url(#clipPath2)" fill="rgb(178,142,0)" width="1" height="104" stroke="none"/>
    </g>
    <g font-size="13px" stroke-linecap="butt" transform="matrix(1,0,0,1,-377,9)" text-rendering="geometricPrecision" font-family="sans-serif" shape-rendering="geometricPrecision" font-weight="bold" stroke-miterlimit="1.45">
      <text x="656.1287" xml:space="preserve" y="326.0669" clip-path="url(#clipPath3)" stroke="none">RCaller(@31b)</text>
    </g>
    <g text-rendering="geometricPrecision" shape-rendering="geometricPrecision" transform="matrix(1,0,0,1,-377,9)">
      <line y2="334" fill="none" x1="617" clip-path="url(#clipPath3)" x2="800" y1="334"/>
      <text stroke-linecap="butt" x="621" y="350.2715" clip-path="url(#clipPath3)" font-family="sans-serif" stroke="none" stroke-miterlimit="1.45" xml:space="preserve">depth = 3</text>
      <text stroke-linecap="butt" x="621" y="364.2402" clip-path="url(#clipPath3)" font-family="sans-serif" stroke="none" stroke-miterlimit="1.45" xml:space="preserve">isPromise = false</text>
      <text stroke-linecap="butt" x="621" y="378.209" clip-path="url(#clipPath3)" font-family="sans-serif" stroke="none" stroke-miterlimit="1.45" xml:space="preserve">payload = {promiseFun(1)}</text>
      <line y2="386" fill="none" x1="617" clip-path="url(#clipPath3)" x2="800" y1="386"/>
      <rect x="617" y="504" clip-path="url(#clipPath2)" fill="rgb(204,255,204)" width="183" height="103" stroke="none"/>
      <rect x="616" y="503" clip-path="url(#clipPath2)" fill="white" width="1" height="105" stroke="none"/>
      <rect x="617" y="503" clip-path="url(#clipPath2)" fill="white" width="183" height="1" stroke="none"/>
      <rect x="617" y="607" clip-path="url(#clipPath2)" fill="rgb(142,178,142)" width="184" height="1" stroke="none"/>
      <rect x="800" y="503" clip-path="url(#clipPath2)" fill="rgb(142,178,142)" width="1" height="104" stroke="none"/>
    </g>
    <g font-size="13px" stroke-linecap="butt" transform="matrix(1,0,0,1,-377,9)" text-rendering="geometricPrecision" font-family="sans-serif" shape-rendering="geometricPrecision" font-weight="bold" stroke-miterlimit="1.45">
      <text x="656.1287" xml:space="preserve" y="520.0669" clip-path="url(#clipPath4)" stroke="none">RCaller(@32d)</text>
    </g>
    <g text-rendering="geometricPrecision" shape-rendering="geometricPrecision" transform="matrix(1,0,0,1,-377,9)">
      <line y2="528" fill="none" x1="617" clip-path="url(#clipPath4)" x2="800" y1="528"/>
      <text stroke-linecap="butt" x="621" y="544.2715" clip-path="url(#clipPath4)" font-family="sans-serif" stroke="none" stroke-miterlimit="1.45" xml:space="preserve">depth = 2</text>
      <text stroke-linecap="butt" x="621" y="558.2402" clip-path="url(#clipPath4)" font-family="sans-serif" stroke="none" stroke-miterlimit="1.45" xml:space="preserve">isPromise = true</text>
      <text stroke-linecap="butt" x="621" y="572.209" clip-path="url(#clipPath4)" font-family="sans-serif" stroke="none" stroke-miterlimit="1.45" xml:space="preserve">promise = &lt;promiseFun(1)&gt;</text>
      <line y2="580" fill="none" x1="617" clip-path="url(#clipPath4)" x2="800" y1="580"/>
      <rect x="914" y="504" clip-path="url(#clipPath2)" fill="rgb(255,204,0)" width="223" height="103" stroke="none"/>
      <rect x="913" y="503" clip-path="url(#clipPath2)" fill="yellow" width="1" height="105" stroke="none"/>
      <rect x="914" y="503" clip-path="url(#clipPath2)" fill="yellow" width="223" height="1" stroke="none"/>
      <rect x="914" y="607" clip-path="url(#clipPath2)" fill="rgb(178,142,0)" width="224" height="1" stroke="none"/>
      <rect x="1137" y="503" clip-path="url(#clipPath2)" fill="rgb(178,142,0)" width="1" height="104" stroke="none"/>
    </g>
    <g font-size="13px" stroke-linecap="butt" transform="matrix(1,0,0,1,-377,9)" text-rendering="geometricPrecision" font-family="sans-serif" shape-rendering="geometricPrecision" font-weight="bold" stroke-miterlimit="1.45">
      <text x="973.7588" xml:space="preserve" y="520.0669" clip-path="url(#clipPath5)" stroke="none">RCaller(@108)</text>
    </g>
    <g text-rendering="geometricPrecision" shape-rendering="geometricPrecision" transform="matrix(1,0,0,1,-377,9)">
      <line y2="528" fill="none" x1="914" clip-path="url(#clipPath5)" x2="1137" y1="528"/>
      <text stroke-linecap="butt" x="918.5" y="544.2715" clip-path="url(#clipPath5)" font-family="sans-serif" stroke="none" stroke-miterlimit="1.45" xml:space="preserve">depth = 2</text>
      <text stroke-linecap="butt" x="918.5" y="558.2402" clip-path="url(#clipPath5)" font-family="sans-serif" stroke="none" stroke-miterlimit="1.45" xml:space="preserve">isPromise = false</text>
      <text stroke-linecap="butt" x="918.5" y="572.209" clip-path="url(#clipPath5)" font-family="sans-serif" stroke="none" stroke-miterlimit="1.45" xml:space="preserve">payload = {foo(promiseFun(1))}</text>
      <line y2="580" fill="none" x1="914" clip-path="url(#clipPath5)" x2="1137" y1="580"/>
      <rect x="617" y="711" clip-path="url(#clipPath2)" fill="rgb(255,204,0)" width="183" height="103" stroke="none"/>
      <rect x="616" y="710" clip-path="url(#clipPath2)" fill="yellow" width="1" height="105" stroke="none"/>
      <rect x="617" y="710" clip-path="url(#clipPath2)" fill="yellow" width="183" height="1" stroke="none"/>
      <rect x="617" y="814" clip-path="url(#clipPath2)" fill="rgb(178,142,0)" width="184" height="1" stroke="none"/>
      <rect x="800" y="710" clip-path="url(#clipPath2)" fill="rgb(178,142,0)" width="1" height="104" stroke="none"/>
    </g>
    <g font-size="13px" stroke-linecap="butt" transform="matrix(1,0,0,1,-377,9)" text-rendering="geometricPrecision" font-family="sans-serif" shape-rendering="geometricPrecision" font-weight="bold" stroke-miterlimit="1.45">
      <text x="656.9285" xml:space="preserve" y="727.0669" clip-path="url(#clipPath6)" stroke="none">RCaller(@76c)</text>
    </g>
    <g text-rendering="geometricPrecision" shape-rendering="geometricPrecision" transform="matrix(1,0,0,1,-377,9)">
      <line y2="735" fill="none" x1="617" clip-path="url(#clipPath6)" x2="800" y1="735"/>
      <text stroke-linecap="butt" x="621" y="751.2715" clip-path="url(#clipPath6)" font-family="sans-serif" stroke="none" stroke-miterlimit="1.45" xml:space="preserve">depth = 1</text>
      <text stroke-linecap="butt" x="621" y="765.2402" clip-path="url(#clipPath6)" font-family="sans-serif" stroke="none" stroke-miterlimit="1.45" xml:space="preserve">isPromise = false</text>
      <text stroke-linecap="butt" x="621" y="779.209" clip-path="url(#clipPath6)" font-family="sans-serif" stroke="none" stroke-miterlimit="1.45" xml:space="preserve">payload = {bar()}</text>
      <line y2="787" fill="none" x1="617" clip-path="url(#clipPath6)" x2="800" y1="787"/>
      <rect x="643" y="901" clip-path="url(#clipPath2)" fill="rgb(255,204,0)" width="131" height="36" stroke="none"/>
      <rect x="642" y="900" clip-path="url(#clipPath2)" fill="yellow" width="1" height="38" stroke="none"/>
      <rect x="643" y="900" clip-path="url(#clipPath2)" fill="yellow" width="131" height="1" stroke="none"/>
      <rect x="643" y="937" clip-path="url(#clipPath2)" fill="rgb(178,142,0)" width="132" height="1" stroke="none"/>
      <rect x="774" y="900" clip-path="url(#clipPath2)" fill="rgb(178,142,0)" width="1" height="37" stroke="none"/>
    </g>
    <g font-size="13px" stroke-linecap="butt" transform="matrix(1,0,0,1,-377,9)" text-rendering="geometricPrecision" font-family="sans-serif" shape-rendering="geometricPrecision" font-weight="bold" stroke-miterlimit="1.45">
      <text x="663.6443" xml:space="preserve" y="917.0669" clip-path="url(#clipPath7)" stroke="none">R_GlobalEnv</text>
    </g>
    <g fill="red" text-rendering="geometricPrecision" shape-rendering="geometricPrecision" transform="matrix(1,0,0,1,-377,9)" stroke="red">
      <rect x="794" width="195" height="48" y="171" clip-path="url(#clipPath2)" stroke="none"/>
      <rect x="793" width="1" height="50" y="170" clip-path="url(#clipPath2)" stroke="none"/>
      <rect x="794" width="195" height="1" y="170" clip-path="url(#clipPath2)" stroke="none"/>
      <rect x="794" y="219" clip-path="url(#clipPath2)" fill="rgb(178,0,0)" width="196" height="1" stroke="none"/>
      <rect x="989" y="170" clip-path="url(#clipPath2)" fill="rgb(178,0,0)" width="1" height="49" stroke="none"/>
    </g>
    <g font-size="13px" stroke-linecap="butt" transform="matrix(1,0,0,1,-377,9)" text-rendering="geometricPrecision" font-family="sans-serif" shape-rendering="geometricPrecision" font-weight="bold" stroke-miterlimit="1.45">
      <text x="814.7793" xml:space="preserve" y="187.0669" clip-path="url(#clipPath8)" stroke="none">current Truffle frame</text>
    </g>
    <g fill="rgb(255,204,0)" text-rendering="geometricPrecision" shape-rendering="geometricPrecision" transform="matrix(1,0,0,1,-377,9)" stroke="rgb(255,204,0)">
      <path d="M1260.5 888 L1378.5 888 L1378.5 903 L1393.5 903 L1393.5 938 L1260.5 938 Z" stroke="none" clip-path="url(#clipPath2)"/>
      <path fill="white" d="M1378.5 888 L1378.5 903 L1393.5 903 Z" clip-path="url(#clipPath2)" fill-rule="evenodd" stroke="none"/>
    </g>
    <g text-rendering="geometricPrecision" stroke-miterlimit="1.45" shape-rendering="geometricPrecision" transform="matrix(1,0,0,1,-377,9)" stroke-linecap="butt">
      <path fill="none" d="M1260.5 888 L1378.5 888 L1378.5 903 L1393.5 903 L1393.5 938 L1260.5 938 Z" clip-path="url(#clipPath2)"/>
      <path fill="none" d="M1378.5 888 L1378.5 903 L1393.5 903 Z" clip-path="url(#clipPath2)" fill-rule="evenodd"/>
      <text x="1288.999" xml:space="preserve" y="917.1543" clip-path="url(#clipPath2)" font-family="sans-serif" stroke="none">sys.frame(0)</text>
    </g>
    <g fill="rgb(255,204,0)" text-rendering="geometricPrecision" shape-rendering="geometricPrecision" transform="matrix(1,0,0,1,-377,9)" stroke="rgb(255,204,0)">
      <path d="M1251 737.5 L1369 737.5 L1369 752.5 L1384 752.5 L1384 787.5 L1251 787.5 Z" stroke="none" clip-path="url(#clipPath2)"/>
      <path fill="white" d="M1369 737.5 L1369 752.5 L1384 752.5 Z" clip-path="url(#clipPath2)" fill-rule="evenodd" stroke="none"/>
    </g>
    <g text-rendering="geometricPrecision" stroke-miterlimit="1.45" shape-rendering="geometricPrecision" transform="matrix(1,0,0,1,-377,9)" stroke-linecap="butt">
      <path fill="none" d="M1251 737.5 L1369 737.5 L1369 752.5 L1384 752.5 L1384 787.5 L1251 787.5 Z" clip-path="url(#clipPath2)"/>
      <path fill="none" d="M1369 737.5 L1369 752.5 L1384 752.5 Z" clip-path="url(#clipPath2)" fill-rule="evenodd"/>
      <text x="1279.499" xml:space="preserve" y="766.6543" clip-path="url(#clipPath2)" font-family="sans-serif" stroke="none">sys.frame(1)</text>
    </g>
    <g fill="rgb(255,204,0)" text-rendering="geometricPrecision" shape-rendering="geometricPrecision" transform="matrix(1,0,0,1,-377,9)" stroke="rgb(255,204,0)">
      <path d="M1251 530.5 L1369 530.5 L1369 545.5 L1384 545.5 L1384 580.5 L1251 580.5 Z" stroke="none" clip-path="url(#clipPath2)"/>
      <path fill="white" d="M1369 530.5 L1369 545.5 L1384 545.5 Z" clip-path="url(#clipPath2)" fill-rule="evenodd" stroke="none"/>
    </g>
    <g text-rendering="geometricPrecision" stroke-miterlimit="1.45" shape-rendering="geometricPrecision" transform="matrix(1,0,0,1,-377,9)" stroke-linecap="butt">
      <path fill="none" d="M1251 530.5 L1369 530.5 L1369 545.5 L1384 545.5 L1384 580.5 L1251 580.5 Z" clip-path="url(#clipPath2)"/>
      <path fill="none" d="M1369 530.5 L1369 545.5 L1384 545.5 Z" clip-path="url(#clipPath2)" fill-rule="evenodd"/>
      <text x="1279.499" xml:space="preserve" y="559.6543" clip-path="url(#clipPath2)" font-family="sans-serif" stroke="none">sys.frame(2)</text>
    </g>
    <g fill="rgb(255,204,0)" text-rendering="geometricPrecision" shape-rendering="geometricPrecision" transform="matrix(1,0,0,1,-377,9)" stroke="rgb(255,204,0)">
      <path d="M1251 336.5 L1369 336.5 L1369 351.5 L1384 351.5 L1384 386.5 L1251 386.5 Z" stroke="none" clip-path="url(#clipPath2)"/>
      <path fill="white" d="M1369 336.5 L1369 351.5 L1384 351.5 Z" clip-path="url(#clipPath2)" fill-rule="evenodd" stroke="none"/>
    </g>
    <g text-rendering="geometricPrecision" stroke-miterlimit="1.45" shape-rendering="geometricPrecision" transform="matrix(1,0,0,1,-377,9)" stroke-linecap="butt">
      <path fill="none" d="M1251 336.5 L1369 336.5 L1369 351.5 L1384 351.5 L1384 386.5 L1251 386.5 Z" clip-path="url(#clipPath2)"/>
      <path fill="none" d="M1369 336.5 L1369 351.5 L1384 351.5 Z" clip-path="url(#clipPath2)" fill-rule="evenodd"/>
      <text x="1279.499" xml:space="preserve" y="365.6543" clip-path="url(#clipPath2)" font-family="sans-serif" stroke="none">sys.frame(3)</text>
    </g>
    <g fill="rgb(255,204,0)" text-rendering="geometricPrecision" shape-rendering="geometricPrecision" transform="matrix(1,0,0,1,-377,9)" stroke="rgb(255,204,0)">
      <path d="M392.125 737.5 L510.125 737.5 L510.125 752.5 L525.125 752.5 L525.125 787.5 L392.125 787.5 Z" stroke="none" clip-path="url(#clipPath2)"/>
      <path fill="white" d="M510.125 737.5 L510.125 752.5 L525.125 752.5 Z" clip-path="url(#clipPath2)" fill-rule="evenodd" stroke="none"/>
    </g>
    <g text-rendering="geometricPrecision" stroke-miterlimit="1.45" shape-rendering="geometricPrecision" transform="matrix(1,0,0,1,-377,9)" stroke-linecap="butt">
      <path fill="none" d="M392.125 737.5 L510.125 737.5 L510.125 752.5 L525.125 752.5 L525.125 787.5 L392.125 787.5 Z" clip-path="url(#clipPath2)"/>
      <path fill="none" d="M510.125 737.5 L510.125 752.5 L525.125 752.5 Z" clip-path="url(#clipPath2)" fill-rule="evenodd"/>
      <text x="410.6279" xml:space="preserve" y="766.6543" clip-path="url(#clipPath2)" font-family="sans-serif" stroke="none">parent.frame(1)</text>
    </g>
    <g fill="rgb(255,204,0)" text-rendering="geometricPrecision" shape-rendering="geometricPrecision" transform="matrix(1,0,0,1,-377,9)" stroke="rgb(255,204,0)">
      <path d="M392.125 894 L510.125 894 L510.125 909 L525.125 909 L525.125 944 L392.125 944 Z" stroke="none" clip-path="url(#clipPath2)"/>
      <path fill="white" d="M510.125 894 L510.125 909 L525.125 909 Z" clip-path="url(#clipPath2)" fill-rule="evenodd" stroke="none"/>
    </g>
    <g text-rendering="geometricPrecision" stroke-miterlimit="1.45" shape-rendering="geometricPrecision" transform="matrix(1,0,0,1,-377,9)" stroke-linecap="butt">
      <path fill="none" d="M392.125 894 L510.125 894 L510.125 909 L525.125 909 L525.125 944 L392.125 944 Z" clip-path="url(#clipPath2)"/>
      <path fill="none" d="M510.125 894 L510.125 909 L525.125 909 Z" clip-path="url(#clipPath2)" fill-rule="evenodd"/>
      <text x="410.6279" xml:space="preserve" y="923.1543" clip-path="url(#clipPath2)" font-family="sans-serif" stroke="none">parent.frame(2)</text>
      <path fill="none" d="M680 6 L1159 6 L1159 21 L1174 21 L1174 116 L680 116 Z" clip-path="url(#clipPath2)"/>
      <path fill="none" d="M1159 6 L1159 21 L1174 21 Z" clip-path="url(#clipPath2)" fill-rule="evenodd"/>
      <text x="686" font-size="13px" y="41.11" clip-path="url(#clipPath2)" font-family="'Source Code Pro'" stroke="none" xml:space="preserve">foo &lt;- function(a) a</text>
      <text x="686" font-size="13px" y="57.451" clip-path="url(#clipPath2)" font-family="'Source Code Pro'" stroke="none" xml:space="preserve">bar &lt;- function() foo(promiseFun(1))</text>
      <text x="686" font-size="13px" y="73.792" clip-path="url(#clipPath2)" font-family="'Source Code Pro'" stroke="none" xml:space="preserve">promiseFun &lt;- function(a) { .fastr.rcallertrace(); a+1 }</text>
      <text x="686" font-size="13px" y="90.133" clip-path="url(#clipPath2)" font-family="'Source Code Pro'" stroke="none" xml:space="preserve">bar()</text>
      <path fill="none" stroke-dasharray="6,2" d="M708.5 414.0259 L708.5 498.0344" clip-path="url(#clipPath2)"/>
      <path stroke-dasharray="6,2" d="M708.5 502.0344 L714.5 490.0344 L708.5 502.0344 L702.5 490.0344 Z" clip-path="url(#clipPath2)" stroke="none"/>
      <path fill="none" stroke-miterlimit="10" d="M708.5 502.0344 L714.5 490.0344 L708.5 502.0344 L702.5 490.0344 Z" clip-path="url(#clipPath2)" stroke-linecap="square"/>
      <text x="652.7158" xml:space="preserve" y="462.6543" clip-path="url(#clipPath2)" font-family="sans-serif" stroke="none">previous</text>
      <path fill="none" stroke-dasharray="6,2" d="M801.0137 555.5 L908.4794 555.5" clip-path="url(#clipPath2)"/>
      <path stroke-dasharray="6,2" d="M912.4794 555.5 L900.4794 549.5 L912.4794 555.5 L900.4794 561.5 Z" clip-path="url(#clipPath2)" stroke="none"/>
      <path fill="none" stroke-miterlimit="10" d="M912.4794 555.5 L900.4794 549.5 L912.4794 555.5 L900.4794 561.5 Z" clip-path="url(#clipPath2)" stroke-linecap="square"/>
      <text x="831.4658" xml:space="preserve" y="529.6543" clip-path="url(#clipPath2)" font-family="sans-serif" stroke="none">previous</text>
      <path fill="none" stroke-dasharray="6,2" d="M708.5 607.9828 L708.5 705.026" clip-path="url(#clipPath2)"/>
      <path stroke-dasharray="6,2" d="M708.5 709.026 L714.5 697.026 L708.5 709.026 L702.5 697.026 Z" clip-path="url(#clipPath2)" stroke="none"/>
      <path fill="none" stroke-miterlimit="10" d="M708.5 709.026 L714.5 697.026 L708.5 709.026 L702.5 697.026 Z" clip-path="url(#clipPath2)" stroke-linecap="square"/>
      <text x="654.6406" xml:space="preserve" y="663.1543" clip-path="url(#clipPath2)" font-family="sans-serif" stroke="none">payload</text>
      <path fill="none" stroke-dasharray="6,2" d="M945.501 607.9828 L793.2028 707.2764" clip-path="url(#clipPath2)"/>
      <path stroke-dasharray="6,2" d="M789.8521 709.461 L803.1812 707.9333 L789.8521 709.461 L796.6274 697.8811 Z" clip-path="url(#clipPath2)" stroke="none"/>
      <path fill="none" stroke-miterlimit="10" d="M789.8521 709.461 L803.1812 707.9333 L789.8521 709.461 L796.6274 697.8811 Z" clip-path="url(#clipPath2)" stroke-linecap="square"/>
      <text x="800.8942" xml:space="preserve" y="653.7929" clip-path="url(#clipPath2)" font-family="sans-serif" stroke="none">previous</text>
      <path fill="none" stroke-dasharray="6,2" d="M708.5 815.036 L708.5 894.989" clip-path="url(#clipPath2)"/>
      <path stroke-dasharray="6,2" d="M708.5 898.989 L714.5 886.989 L708.5 898.989 L702.5 886.989 Z" clip-path="url(#clipPath2)" stroke="none"/>
      <path fill="none" stroke-miterlimit="10" d="M708.5 898.989 L714.5 886.989 L708.5 898.989 L702.5 886.989 Z" clip-path="url(#clipPath2)" stroke-linecap="square"/>
      <text x="652.7158" xml:space="preserve" y="861.6543" clip-path="url(#clipPath2)" font-family="sans-serif" stroke="none">previous</text>
      <path fill="none" d="M771.707 304.3045 L864.8489 220.0213" clip-path="url(#clipPath2)"/>
      <path d="M766.5166 309.0013 L768.3522 300.5971 L776.8975 299.6078 L775.0618 308.012 Z" clip-path="url(#clipPath2)" stroke="none"/>
      <text x="819.0838" xml:space="preserve" y="272.7844" clip-path="url(#clipPath2)" font-family="sans-serif" stroke="none">INDEX_CALL</text>
      <path fill="none" d="M1260.5219 913.6449 L774.9758 918.3551" clip-path="url(#clipPath2)"/>
      <path fill="none" d="M1251.0022 762.5 L800.981 762.5" clip-path="url(#clipPath2)"/>
      <path fill="none" d="M1250.9944 555.5 L1138.5247 555.5" clip-path="url(#clipPath2)"/>
      <path fill="none" d="M801.0172 361.5 L1251.0167 361.5" clip-path="url(#clipPath2)"/>
      <path fill="none" d="M525.1506 762.5 L615.9748 762.5" clip-path="url(#clipPath2)"/>
      <path fill="none" d="M525.1506 919 L642.0269 919" clip-path="url(#clipPath2)"/>
    </g>
  </g>
</svg>
